<?xml version="1.0" encoding="UTF-8" standalone="no"?>
<!DOCTYPE svg PUBLIC "-//W3C//DTD SVG 1.1//EN" "http://www.w3.org/Graphics/SVG/1.1/DTD/svg11.dtd">
<svg xmlns="http://www.w3.org/2000/svg" version="1.1" viewBox="0.00 0.00 1848.00 1133.00">
<g stroke-width="2.00" fill="none" stroke-linecap="butt">
<path stroke="#86a298" vector-effect="non-scaling-stroke" d="
  M 527.67 721.89
  C 514.85 703.65 496.75 696.43 474.58 696.60"
/>
<path stroke="#1f341e" vector-effect="non-scaling-stroke" d="
  M 557.23 666.77
  Q 558.05 668.19 558.02 669.19
  A 0.81 0.81 0.0 0 0 559.04 669.99
  L 584.29 663.25
  A 1.61 1.60 -1.8 0 0 585.44 662.03
  L 586.27 657.86"
/>
<path stroke="#ffda99" vector-effect="non-scaling-stroke" d="
  M 492.80 764.77
  L 487.08 765.76
  A 0.75 0.75 0.0 0 1 486.20 764.99
  L 486.37 761.59"
/>
<path stroke="#ffda99" vector-effect="non-scaling-stroke" d="
  M 463.44 750.83
  Q 462.05 755.05 462.04 757.75
  Q 461.97 777.68 462.00 797.85"
/>
<path stroke="#ffda99" vector-effect="non-scaling-stroke" d="
  M 462.11 851.86
  L 462.11 896.07"
/>
<path stroke="#ffda99" vector-effect="non-scaling-stroke" d="
  M 486.28 895.97
  L 486.25 864.26
  Q 486.25 863.73 485.71 863.73
  L 467.81 863.88
  A 1.82 1.81 88.0 0 1 465.98 862.16
  L 465.53 853.87"
/>
<path stroke="#ffda99" vector-effect="non-scaling-stroke" d="
  M 498.21 816.30
  L 533.78 816.36
  A 0.50 0.50 0.0 0 1 534.28 816.86
  L 534.27 837.14"
/>
<path stroke="#ffda99" vector-effect="non-scaling-stroke" d="
  M 534.33 888.88
  L 534.30 895.93"
/>
<path stroke="#ffda99" vector-effect="non-scaling-stroke" d="
  M 413.96 878.63
  L 413.98 832.29"
/>
<path stroke="#ffda99" vector-effect="non-scaling-stroke" d="
  M 421.51 733.23
  Q 418.18 739.52 416.77 746.00
  Q 413.67 760.27 413.94 776.65"
/>
<path stroke="#ffda99" vector-effect="non-scaling-stroke" d="
  M 211.47 719.08
  L 208.23 697.22
  A 0.75 0.75 0.0 0 0 207.48 696.58
  L 156.53 696.61
  A 0.71 0.71 0.0 0 0 155.83 697.22
  L 154.05 709.74"
/>
<path stroke="#5c4113" vector-effect="non-scaling-stroke" d="
  M 581.74 618.80
  L 573.54 625.94
  Q 573.50 625.98 573.48 625.92
  Q 573.45 625.76 573.39 625.69
  Q 573.31 625.59 573.14 625.73
  Q 567.47 630.34 561.83 634.67"
/>
<path stroke="#ffda99" vector-effect="non-scaling-stroke" d="
  M 220.34 778.65
  L 227.06 824.02"
/>
<path stroke="#ffda99" vector-effect="non-scaling-stroke" d="
  M 234.18 871.63
  L 237.77 895.94"
/>
<path stroke="#ffda99" vector-effect="non-scaling-stroke" d="
  M 126.39 895.93
  L 132.38 855.63"
/>
<path stroke="#ffda99" vector-effect="non-scaling-stroke" d="
  M 139.18 809.69
  L 145.56 766.99"
/>
<path stroke="#a67521" vector-effect="non-scaling-stroke" d="
  M 601.57 573.68
  L 573.89 595.26
  A 1.22 1.19 -11.2 0 0 573.47 595.87
  Q 573.16 596.92 572.01 596.91
  A 0.99 0.96 -62.7 0 0 571.38 597.12
  Q 568.29 599.60 565.36 602.21
  Q 563.56 603.81 560.98 605.47
  Q 558.66 606.96 556.53 608.70
  C 554.26 610.55 551.05 612.03 548.53 615.02
  Q 546.57 617.33 543.03 618.82"
/>
<path stroke="#5c4113" vector-effect="non-scaling-stroke" d="
  M 597.14 601.06
  L 612.49 589.02"
/>
<path stroke="#a67521" vector-effect="non-scaling-stroke" d="
  M 638.93 539.43
  L 602.19 568.10"
/>
<path stroke="#86a298" vector-effect="non-scaling-stroke" d="
  M 1634.12 719.36
  L 1627.82 762.15"
/>
<path stroke="#86a298" vector-effect="non-scaling-stroke" d="
  M 1431.85 726.31
  L 1431.79 696.63
  Q 1431.79 696.08 1431.24 696.08
  L 1383.27 696.09
  Q 1382.75 696.09 1382.75 696.62
  L 1382.69 721.24"
/>
<path stroke="#86a298" vector-effect="non-scaling-stroke" d="
  M 1106.15 717.80
  L 1103.13 697.36
  A 0.91 0.91 0.0 0 0 1102.23 696.58
  L 1051.39 696.59
  A 0.64 0.64 0.0 0 0 1050.76 697.14
  L 1046.99 722.02"
/>
<path stroke="#86a298" vector-effect="non-scaling-stroke" d="
  M 827.21 751.55
  Q 822.67 735.27 811.44 722.30
  Q 807.60 717.87 801.98 712.72"
/>
<path stroke="#86a298" vector-effect="non-scaling-stroke" d="
  M 827.64 795.03
  Q 825.74 801.47 823.61 807.95
  C 821.19 815.31 817.93 821.66 814.21 828.27
  A 2.04 2.04 0.0 0 0 814.35 830.50
  L 821.32 839.82"
/>
<path stroke="#86a298" vector-effect="non-scaling-stroke" d="
  M 710.05 857.11
  L 710.06 820.54"
/>
<path stroke="#86a298" vector-effect="non-scaling-stroke" d="
  M 710.06 775.90
  L 710.07 732.05"
/>
<path stroke="#86a298" vector-effect="non-scaling-stroke" d="
  M 1431.86 767.81
  L 1431.85 810.86"
/>
<path stroke="#86a298" vector-effect="non-scaling-stroke" d="
  M 1431.84 865.65
  L 1431.79 889.41"
/>
<path stroke="#86a298" vector-effect="non-scaling-stroke" d="
  M 1382.74 889.46
  L 1382.68 861.01"
/>
<path stroke="#86a298" vector-effect="non-scaling-stroke" d="
  M 1382.70 806.11
  L 1382.69 763.06"
/>
<path stroke="#86a298" vector-effect="non-scaling-stroke" d="
  M 1695.76 736.41
  L 1702.79 783.67"
/>
<path stroke="#86a298" vector-effect="non-scaling-stroke" d="
  M 1709.00 825.41
  L 1716.07 873.19"
/>
<path stroke="#86a298" vector-effect="non-scaling-stroke" d="
  M 1615.74 843.19
  L 1622.11 800.66"
/>
<path stroke="#86a298" vector-effect="non-scaling-stroke" d="
  M 1112.61 761.18
  L 1118.91 803.65"
/>
<path stroke="#86a298" vector-effect="non-scaling-stroke" d="
  M 1127.03 858.30
  L 1131.64 889.44"
/>
<path stroke="#86a298" vector-effect="non-scaling-stroke" d="
  M 1022.15 889.45
  L 1025.70 865.41"
/>
<path stroke="#86a298" vector-effect="non-scaling-stroke" d="
  M 1033.96 809.93
  L 1040.40 766.37"
/>
<path stroke="#19352c" vector-effect="non-scaling-stroke" d="
  M 950.00 585.78
  Q 958.01 584.97 966.25 584.96
  Q 969.60 584.96 975.68 582.79"
/>
<path stroke="#19352c" vector-effect="non-scaling-stroke" d="
  M 1015.28 579.08
  Q 1030.78 579.38 1046.50 579.26
  Q 1057.05 579.18 1064.11 574.27"
/>
<path stroke="#86a298" vector-effect="non-scaling-stroke" d="
  M 744.87 845.56
  C 753.02 845.32 762.62 844.84 769.88 847.22
  C 783.13 851.56 792.61 864.19 794.95 877.51
  Q 796.87 888.42 796.92 902.00
  Q 797.05 942.50 796.89 983.01
  A 0.65 0.64 0.4 0 0 797.54 983.66
  L 817.44 983.67
  A 0.53 0.53 0.0 0 0 817.97 983.14
  Q 818.05 932.07 817.95 881.00
  Q 817.91 861.52 809.21 846.10
  C 806.37 841.05 802.01 837.09 797.66 833.19
  Q 797.07 832.67 797.41 831.96
  C 801.55 823.44 806.88 814.15 809.92 806.33
  Q 815.01 793.23 816.18 780.50
  C 819.65 742.81 793.40 709.73 754.47 709.55
  Q 735.40 709.46 724.22 709.59
  Q 723.59 709.60 723.59 710.23
  L 723.66 983.28
  A 0.37 0.37 0.0 0 0 724.03 983.65
  L 744.04 983.71
  A 0.50 0.50 0.0 0 0 744.54 983.21
  L 744.56 845.89
  A 0.33 0.32 89.1 0 1 744.87 845.56"
/>
<path stroke="#86a298" vector-effect="non-scaling-stroke" d="
  M 1353.77 982.47
  C 1396.26 988.76 1418.28 969.21 1418.29 926.99
  Q 1418.33 818.57 1418.31 710.12
  Q 1418.31 709.52 1417.71 709.52
  L 1396.81 709.54
  Q 1396.24 709.54 1396.24 710.11
  Q 1396.25 824.36 1396.22 938.58
  Q 1396.22 943.08 1395.05 946.22
  C 1389.91 960.03 1376.20 966.61 1362.26 963.16
  Q 1350.39 960.22 1345.36 947.19
  Q 1345.15 946.64 1344.57 946.75
  L 1323.00 951.03
  Q 1322.40 951.15 1322.46 951.76
  C 1324.29 969.62 1336.65 979.94 1353.77 982.47"
/>
<path stroke="#86a298" vector-effect="non-scaling-stroke" d="
  M 157.58 925.40
  A 0.53 0.53 0.0 0 1 157.06 924.81
  L 180.84 710.62
  A 0.53 0.53 0.0 0 0 180.32 710.03
  L 168.09 710.08
  A 0.53 0.53 0.0 0 0 167.56 710.53
  L 127.12 982.54
  A 0.53 0.53 0.0 0 0 127.64 983.15
  L 148.49 983.14
  A 0.53 0.53 0.0 0 0 149.01 982.68
  L 153.17 952.21
  A 0.53 0.53 0.0 0 1 153.69 951.75
  L 210.33 951.75
  A 0.53 0.53 0.0 0 1 210.85 952.20
  L 215.57 982.69
  A 0.53 0.53 0.0 0 0 216.09 983.14
  L 236.49 983.14
  A 0.53 0.53 0.0 0 0 237.01 982.53
  L 196.57 710.51
  A 0.53 0.53 0.0 0 0 196.04 710.06
  L 183.27 710.06
  A 0.53 0.53 0.0 0 0 182.75 710.65
  L 206.53 924.79
  A 0.53 0.53 0.0 0 1 206.01 925.38
  L 157.58 925.40"
/>
<path stroke="#ffda99" vector-effect="non-scaling-stroke" d="
  M 177.68 861.60
  L 173.87 896.01"
/>
<path stroke="#ffda99" vector-effect="non-scaling-stroke" d="
  M 189.80 895.94
  L 186.16 862.82"
/>
<path stroke="#86a298" vector-effect="non-scaling-stroke" d="
  M 499.72 851.00
  Q 499.88 915.49 499.74 937.00
  C 499.54 969.05 457.26 971.77 449.48 942.95
  Q 448.52 939.36 448.52 936.50
  Q 448.48 847.87 448.53 759.26
  Q 448.53 742.48 460.97 735.29
  C 474.94 727.21 494.59 732.06 498.79 749.16
  A 0.61 0.60 77.1 0 0 499.50 749.61
  L 519.99 745.46
  Q 520.45 745.36 520.44 744.89
  C 520.04 726.02 504.68 714.10 487.40 711.05
  C 465.24 707.14 448.40 717.56 436.08 735.08
  Q 430.89 742.45 429.44 751.88
  C 428.43 758.42 427.50 764.65 427.49 771.42
  Q 427.46 845.83 427.50 920.24
  Q 427.50 933.79 428.94 940.13
  C 434.89 966.50 457.19 986.85 485.19 983.44
  C 501.19 981.49 516.30 971.12 519.83 954.94
  Q 520.75 950.71 520.75 935.00
  Q 520.75 882.62 520.75 830.26
  A 0.36 0.35 -0.0 0 0 520.39 829.91
  L 479.94 829.89
  Q 479.27 829.89 479.27 830.56
  L 479.26 849.54
  Q 479.26 850.32 480.04 850.32
  L 499.06 850.34
  Q 499.72 850.34 499.72 851.00"
/>
<path stroke="#86a298" vector-effect="non-scaling-stroke" d="
  M 1101.36 924.79
  A 0.53 0.53 0.0 0 1 1100.84 925.38
  L 1052.41 925.39
  A 0.53 0.53 0.0 0 1 1051.89 924.80
  L 1075.67 710.61
  A 0.53 0.53 0.0 0 0 1075.15 710.02
  L 1062.90 710.08
  A 0.53 0.53 0.0 0 0 1062.38 710.53
  L 1021.96 982.54
  A 0.53 0.53 0.0 0 0 1022.49 983.15
  L 1043.29 983.13
  A 0.53 0.53 0.0 0 0 1043.81 982.67
  L 1048.04 952.21
  A 0.53 0.53 0.0 0 1 1048.56 951.75
  L 1105.15 951.75
  A 0.53 0.53 0.0 0 1 1105.67 952.20
  L 1110.40 982.69
  A 0.53 0.53 0.0 0 0 1110.92 983.14
  L 1131.32 983.14
  A 0.53 0.53 0.0 0 0 1131.84 982.53
  L 1091.40 710.52
  A 0.53 0.53 0.0 0 0 1090.87 710.07
  L 1078.10 710.05
  A 0.53 0.53 0.0 0 0 1077.58 710.64
  L 1101.36 924.79"
/>
<path stroke="#86a298" vector-effect="non-scaling-stroke" d="
  M 1072.54 861.76
  L 1069.40 889.36"
/>
<path stroke="#86a298" vector-effect="non-scaling-stroke" d="
  M 1083.86 889.48
  L 1080.69 861.26"
/>
<path stroke="#86a298" vector-effect="non-scaling-stroke" d="
  M 1688.19 924.77
  A 0.54 0.54 0.0 0 1 1687.66 925.37
  L 1639.26 925.39
  A 0.54 0.54 0.0 0 1 1638.73 924.79
  L 1662.51 710.62
  A 0.54 0.54 0.0 0 0 1661.97 710.02
  L 1649.76 710.08
  A 0.54 0.54 0.0 0 0 1649.23 710.54
  L 1608.79 982.53
  A 0.54 0.54 0.0 0 0 1609.33 983.15
  L 1630.11 983.13
  A 0.54 0.54 0.0 0 0 1630.64 982.66
  L 1634.88 952.22
  A 0.54 0.54 0.0 0 1 1635.41 951.75
  L 1691.99 951.75
  A 0.54 0.54 0.0 0 1 1692.52 952.21
  L 1697.22 982.66
  A 0.54 0.54 0.0 0 0 1697.75 983.12
  L 1718.14 983.14
  A 0.54 0.54 0.0 0 0 1718.68 982.52
  L 1678.24 710.51
  A 0.54 0.54 0.0 0 0 1677.70 710.05
  L 1664.94 710.05
  A 0.54 0.54 0.0 0 0 1664.41 710.65
  L 1688.19 924.77"
/>
<path stroke="#86a298" vector-effect="non-scaling-stroke" d="
  M 1667.14 857.46
  L 1663.80 825.86
  A 0.16 0.16 0.0 0 0 1663.49 825.86
  L 1660.11 855.14"
/>
<path stroke="#86a298" vector-effect="non-scaling-stroke" d="
  M 795.38 761.28
  C 792.94 747.46 781.75 731.67 766.25 731.22
  Q 756.16 730.93 745.81 731.12
  A 0.61 0.61 0.0 0 0 745.21 731.73
  L 745.22 820.76
  A 0.42 0.42 0.0 0 0 745.63 821.18
  C 753.49 821.42 763.78 821.95 770.65 819.87
  C 793.16 813.03 798.82 780.74 795.38 761.28"
/>
<path stroke="#86a298" vector-effect="non-scaling-stroke" d="
  M 781.45 760.36
  Q 778.81 752.27 773.29 747.88
  Q 767.65 743.40 759.15 744.93
  Q 758.74 745.00 758.74 745.42
  L 758.74 765.04"
/>
</g>
<circle fill="#ffb533" cx="339.28" cy="222.74" r="189.35"/>
<path fill="#0c4431" d="
  M 1234.58 281.61
  C 1150.87 245.16 1067.15 208.73 983.48 172.20
  A 2.79 2.79 0.0 0 0 981.24 172.20
  Q 855.92 226.79 730.26 281.55
  Q 724.31 284.14 720.94 284.15
  C 709.50 284.18 706.99 273.25 703.18 264.92
  A 1.08 1.07 -24.1 0 1 703.73 263.49
  L 980.73 142.80
  A 4.04 4.03 -44.7 0 1 983.96 142.81
  L 1261.31 263.64
  A 0.72 0.72 0.0 0 1 1261.67 264.60
  C 1257.70 273.07 1255.32 284.12 1243.72 284.10
  Q 1240.29 284.10 1234.58 281.61
  Z"
/>
<path fill="#0c4431" d="
  M 527.67 721.89
  C 514.85 703.65 496.75 696.43 474.58 696.60
  C 502.53 685.17 528.24 675.82 557.23 666.77
  Q 558.05 668.19 558.02 669.19
  A 0.81 0.81 0.0 0 0 559.04 669.99
  L 584.29 663.25
  A 1.61 1.60 -1.8 0 0 585.44 662.03
  L 586.27 657.86
  Q 674.25 632.27 764.34 614.50
  A 0.88 0.88 0.0 0 0 765.05 613.64
  Q 765.04 466.30 765.08 318.75
  C 765.09 304.62 770.13 291.15 781.58 283.56
  C 787.63 279.56 796.64 276.47 801.64 274.27
  Q 891.11 234.82 981.52 194.96
  Q 982.30 194.62 983.07 194.96
  C 1046.60 222.93 1110.11 251.18 1173.98 278.80
  C 1187.35 284.58 1196.16 293.67 1198.66 308.51
  C 1199.83 315.53 1199.66 323.25 1199.66 330.90
  Q 1199.67 447.17 1199.66 563.44
  Q 1199.66 563.58 1199.43 565.52
  Q 1199.25 567.13 1200.45 567.77
  Q 1201.09 568.12 1202.60 568.09
  Q 1297.28 566.64 1391.80 573.49
  Q 1392.78 573.56 1392.78 572.58
  L 1392.81 556.16
  A 1.20 1.20 0.0 0 0 1391.98 555.02
  C 1372.56 548.87 1365.86 530.08 1363.16 511.74
  Q 1355.93 462.58 1361.52 416.75
  Q 1365.40 384.83 1374.32 343.26
  Q 1387.19 283.25 1403.91 224.01
  A 0.36 0.35 -64.0 0 1 1404.46 223.82
  Q 1404.70 224.00 1404.83 224.46
  C 1421.24 282.59 1436.62 345.29 1445.61 406.09
  C 1450.22 437.30 1450.57 468.25 1447.08 500.24
  C 1444.74 521.60 1440.34 547.58 1416.56 555.01
  A 0.83 0.82 81.4 0 0 1415.98 555.80
  L 1415.96 574.58
  A 0.87 0.85 -87.9 0 0 1416.75 575.45
  Q 1487.06 581.34 1556.78 592.19
  A 0.69 0.69 0.0 0 0 1557.57 591.51
  L 1557.50 575.48
  Q 1557.49 574.94 1556.97 574.77
  C 1543.04 570.19 1537.22 558.62 1534.39 545.21
  Q 1531.86 533.22 1530.91 521.00
  Q 1527.83 481.29 1534.64 442.04
  Q 1546.90 371.42 1566.80 302.56
  Q 1566.98 301.92 1567.28 302.52
  C 1568.12 304.20 1568.42 306.49 1568.78 307.77
  Q 1587.64 373.55 1599.50 440.93
  Q 1607.68 487.41 1601.70 534.73
  C 1599.49 552.20 1594.78 568.44 1577.12 574.90
  A 0.76 0.75 80.1 0 0 1576.63 575.61
  L 1576.64 594.77
  A 0.72 0.72 0.0 0 0 1577.24 595.48
  Q 1650.55 607.66 1722.64 625.68
  A 0.82 0.82 0.0 0 1 1723.27 626.48
  L 1723.26 669.25
  Q 1723.26 670.15 1722.39 669.92
  Q 1710.11 666.70 1697.23 663.63
  Q 1550.36 628.55 1399.75 617.03
  C 1199.92 601.74 997.86 614.26 800.98 650.86
  Q 724.00 665.17 648.25 685.03
  Q 587.05 701.07 527.67 721.89
  Z
  M 1005.99 292.26
  A 23.63 23.63 0.0 0 0 982.36 268.63
  A 23.63 23.63 0.0 0 0 958.73 292.26
  A 23.63 23.63 0.0 0 0 982.36 315.89
  A 23.63 23.63 0.0 0 0 1005.99 292.26
  Z
  M 950.00 585.78
  Q 958.01 584.97 966.25 584.96
  Q 969.60 584.96 975.68 582.79
  C 985.38 579.98 996.13 579.90 1006.17 578.81
  C 1009.22 578.48 1012.20 578.90 1015.28 579.08
  Q 1030.78 579.38 1046.50 579.26
  Q 1057.05 579.18 1064.11 574.27
  L 1079.51 573.00
  A 1.12 1.12 0.0 0 0 1080.54 571.87
  Q 1080.20 493.39 1080.07 414.50
  C 1080.05 407.26 1076.42 408.04 1070.43 408.04
  Q 980.09 407.98 889.75 408.03
  C 883.82 408.03 884.66 413.30 884.64 417.50
  Q 884.19 505.35 883.88 593.01
  A 0.61 0.60 85.9 0 0 884.57 593.61
  C 901.56 591.19 918.75 588.32 935.84 586.89
  Q 942.89 586.31 950.00 585.78
  Z"
/>
<path fill="#262626" d="
  M 1064.11 574.27
  Q 1057.05 579.18 1046.50 579.26
  Q 1030.78 579.38 1015.28 579.08
  Q 998.79 573.17 997.24 556.89
  C 996.87 552.98 998.44 548.42 998.62 544.47
  C 999.29 530.36 1005.80 513.59 1019.13 507.42
  C 1029.78 502.50 1043.28 503.37 1053.01 509.89
  C 1063.91 517.20 1070.13 531.72 1071.27 544.75
  Q 1071.58 548.33 1072.07 550.96
  C 1073.55 558.98 1071.68 566.34 1065.86 572.21
  Q 1064.89 573.19 1064.11 574.27
  Z
  M 1000.57 548.79
  L 1068.55 548.67
  A 0.29 0.29 0.0 0 0 1068.84 548.38
  L 1068.83 546.92
  A 40.49 32.19 89.9 0 0 1036.57 506.49
  L 1032.39 506.49
  A 40.49 32.19 89.9 0 0 1000.27 547.04
  L 1000.28 548.50
  A 0.29 0.29 0.0 0 0 1000.57 548.79
  Z"
/>
<path fill="#262626" d="
  M 975.68 582.79
  Q 969.60 584.96 966.25 584.96
  Q 958.01 584.97 950.00 585.78
  C 943.30 585.26 935.06 585.94 929.46 584.09
  C 919.98 580.97 913.25 572.21 912.92 562.20
  C 912.80 558.38 914.05 552.59 914.43 547.51
  Q 915.13 538.14 920.46 527.71
  C 928.89 511.22 948.11 505.77 964.54 513.38
  C 974.14 517.82 980.57 526.79 983.88 536.73
  Q 986.46 544.48 986.89 549.26
  Q 987.34 554.23 987.94 557.52
  C 989.86 568.01 984.57 577.22 975.68 582.79
  Z
  M 916.21 554.50
  L 984.31 554.50
  A 0.27 0.27 0.0 0 0 984.58 554.23
  L 984.58 552.95
  A 40.67 32.33 -90.0 0 0 952.25 512.28
  L 948.27 512.28
  A 40.67 32.33 90.0 0 0 915.94 552.95
  L 915.94 554.23
  A 0.27 0.27 0.0 0 0 916.21 554.50
  Z"
/>
<path fill="#c58b27" d="
  M 638.93 539.43
  L 602.19 568.10
  Q 589.98 556.28 597.39 540.85
  Q 597.61 540.39 597.19 540.10
  C 592.97 537.20 587.18 536.14 589.12 529.12
  A 1.04 1.03 30.3 0 1 590.86 528.67
  Q 594.63 532.49 599.68 530.12
  Q 600.08 529.93 600.53 529.96
  C 604.01 530.23 606.21 529.45 608.87 526.92
  Q 613.83 522.20 619.00 519.02
  C 620.52 518.08 622.00 518.31 623.42 519.50
  C 627.28 522.76 630.22 524.72 635.56 523.86
  A 3.11 3.10 -15.9 0 1 638.92 525.73
  Q 641.63 532.23 638.93 539.43
  Z"
/>
<path fill="#262626" d="
  M 1006.76 543.59
  Q 1009.94 535.41 1012.90 530.71
  C 1017.46 523.49 1025.12 525.52 1030.09 531.13
  C 1031.57 532.81 1032.15 533.30 1031.32 535.67
  Q 1029.89 539.79 1028.28 543.82
  Q 1028.07 544.35 1027.49 544.35
  L 1007.24 544.30
  A 0.52 0.52 0.0 0 1 1006.76 543.59
  Z"
/>
<path fill="#262626" d="
  M 1034.24 543.70
  C 1035.60 536.50 1042.77 522.88 1051.84 526.89
  C 1057.63 529.45 1061.65 537.85 1062.93 543.77
  Q 1063.05 544.32 1062.48 544.32
  L 1034.75 544.32
  Q 1034.12 544.32 1034.24 543.70
  Z"
/>
<path fill="#262626" d="
  M 922.48 549.47
  C 924.49 543.77 929.20 531.43 936.40 531.94
  Q 943.86 532.47 947.41 539.36
  Q 947.63 539.80 947.46 540.27
  L 944.00 549.70
  A 0.75 0.74 -79.9 0 1 943.30 550.19
  L 922.98 550.19
  Q 922.23 550.19 922.48 549.47
  Z"
/>
<path fill="#262626" d="
  M 949.75 549.49
  C 951.85 543.03 954.34 535.94 961.13 532.86
  C 970.63 528.55 977.09 543.13 978.76 549.75
  A 0.35 0.35 0.0 0 1 978.42 550.19
  L 950.24 550.17
  A 0.52 0.52 0.0 0 1 949.75 549.49
  Z"
/>
<path fill="#865f1b" d="
  M 638.93 539.43
  Q 641.25 544.60 645.32 548.42
  C 647.24 550.22 648.68 549.64 651.11 549.89
  A 0.55 0.55 0.0 0 1 651.59 550.59
  C 650.66 553.95 648.54 555.98 644.78 555.46
  Q 641.22 554.96 637.76 554.09
  A 0.73 0.73 0.0 0 0 636.87 554.65
  C 633.40 571.32 615.73 578.46 602.19 568.10
  L 638.93 539.43
  Z"
/>
<path fill="#c58b27" d="
  M 601.57 573.68
  L 573.89 595.26
  A 1.22 1.19 -11.2 0 0 573.47 595.87
  Q 573.16 596.92 572.01 596.91
  A 0.99 0.96 -62.7 0 0 571.38 597.12
  Q 568.29 599.60 565.36 602.21
  Q 563.56 603.81 560.98 605.47
  Q 558.66 606.96 556.53 608.70
  C 554.26 610.55 551.05 612.03 548.53 615.02
  Q 546.57 617.33 543.03 618.82
  Q 537.89 614.48 532.87 610.21
  Q 529.72 607.52 528.32 604.77
  C 524.28 596.86 524.19 586.78 532.38 581.23
  Q 552.97 567.27 574.69 555.15
  C 583.15 550.42 588.44 554.17 593.35 561.41
  Q 597.48 567.52 601.57 573.68
  Z"
/>
<path fill="#32230a" d="
  M 597.14 601.06
  L 612.49 589.02
  L 619.77 599.12
  A 3.83 3.82 -12.8 0 0 622.22 600.66
  L 639.66 603.78
  Q 640.23 603.88 640.33 604.45
  L 640.57 605.76
  Q 640.68 606.31 641.21 606.14
  Q 643.52 605.40 644.06 603.26
  Q 646.71 592.88 646.36 581.87
  Q 646.20 576.84 647.26 581.76
  Q 648.81 588.93 648.75 596.24
  A 0.15 0.15 0.0 0 0 649.04 596.28
  Q 652.67 584.42 652.85 572.02
  Q 652.91 568.22 653.66 571.95
  Q 655.40 580.63 653.95 590.80
  C 653.83 591.70 653.09 593.73 653.03 595.19
  Q 652.98 596.20 653.58 595.38
  Q 658.87 588.13 666.33 583.10
  Q 667.60 582.25 666.49 583.30
  Q 658.85 590.46 654.83 600.67
  C 653.51 604.00 652.67 605.31 652.95 607.97
  C 653.35 611.88 652.39 617.54 651.38 620.12
  Q 649.58 624.69 644.75 625.71
  C 641.56 626.38 639.16 623.53 637.60 621.22
  Q 637.25 620.70 636.87 621.21
  L 636.22 622.09
  Q 635.92 622.50 635.42 622.39
  L 609.96 616.80
  A 2.44 2.42 77.3 0 1 608.56 615.91
  L 597.14 601.06
  Z"
/>
<path fill="#865f1b" d="
  M 601.57 573.68
  L 612.49 589.02
  L 597.14 601.06
  L 591.30 593.47
  Q 590.99 593.08 590.58 593.35
  L 569.06 607.29
  A 0.77 0.77 0.0 0 0 569.00 608.54
  L 581.74 618.80
  L 573.54 625.94
  Q 573.50 625.98 573.48 625.92
  Q 573.45 625.76 573.39 625.69
  Q 573.31 625.59 573.14 625.73
  Q 567.47 630.34 561.83 634.67
  L 543.03 618.82
  Q 546.57 617.33 548.53 615.02
  C 551.05 612.03 554.26 610.55 556.53 608.70
  Q 558.66 606.96 560.98 605.47
  Q 563.56 603.81 565.36 602.21
  Q 568.29 599.60 571.38 597.12
  A 0.99 0.96 -62.7 0 1 572.01 596.91
  Q 573.16 596.92 573.47 595.87
  A 1.22 1.19 -11.2 0 1 573.89 595.26
  L 601.57 573.68
  Z"
/>
<path fill="#32230a" d="
  M 581.74 618.80
  C 586.20 621.60 592.22 627.09 591.01 632.71
  Q 588.22 645.66 586.27 657.86
  L 585.44 662.03
  A 1.61 1.60 -1.8 0 1 584.29 663.25
  L 559.04 669.99
  A 0.81 0.81 0.0 0 1 558.02 669.19
  Q 558.05 668.19 557.23 666.77
  C 558.07 666.57 558.73 665.73 558.91 664.83
  Q 561.61 651.12 564.46 637.36
  Q 564.56 636.84 564.15 636.51
  L 561.83 634.67
  Q 567.47 630.34 573.14 625.73
  Q 573.31 625.59 573.39 625.69
  Q 573.45 625.76 573.48 625.92
  Q 573.50 625.98 573.54 625.94
  L 581.74 618.80
  Z"
/>
<path fill="#ffb533" d="
  M 421.51 733.23
  Q 418.18 739.52 416.77 746.00
  Q 413.67 760.27 413.94 776.65
  Q 315.62 737.81 211.47 719.08
  L 208.23 697.22
  A 0.75 0.75 0.0 0 0 207.48 696.58
  L 156.53 696.61
  A 0.71 0.71 0.0 0 0 155.83 697.22
  L 154.05 709.74
  Q 121.35 705.22 88.55 702.37
  Q 87.98 702.32 87.98 701.75
  L 87.98 659.50
  A 0.51 0.51 0.0 0 1 88.54 658.99
  Q 159.83 664.92 232.98 679.18
  Q 330.62 698.23 421.51 733.23
  Z"
/>
<path fill="#0c4431" d="
  M 1634.12 719.36
  L 1627.82 762.15
  Q 1531.10 737.70 1431.85 726.31
  L 1431.79 696.63
  Q 1431.79 696.08 1431.24 696.08
  L 1383.27 696.09
  Q 1382.75 696.09 1382.75 696.62
  L 1382.69 721.24
  Q 1271.21 711.80 1158.50 715.56
  Q 1128.91 716.55 1106.15 717.80
  L 1103.13 697.36
  A 0.91 0.91 0.0 0 0 1102.23 696.58
  L 1051.39 696.59
  A 0.64 0.64 0.0 0 0 1050.76 697.14
  L 1046.99 722.02
  Q 936.51 731.51 827.21 751.55
  Q 822.67 735.27 811.44 722.30
  Q 807.60 717.87 801.98 712.72
  C 993.12 676.15 1189.78 662.02 1383.49 678.02
  Q 1509.52 688.44 1634.12 719.36
  Z"
/>
<path fill="#ffffff" d="
  M 801.98 712.72
  Q 807.60 717.87 811.44 722.30
  Q 822.67 735.27 827.21 751.55
  C 830.97 767.19 830.07 780.14 827.64 795.03
  Q 825.74 801.47 823.61 807.95
  C 821.19 815.31 817.93 821.66 814.21 828.27
  A 2.04 2.04 0.0 0 0 814.35 830.50
  L 821.32 839.82
  Q 831.46 858.65 831.48 877.74
  Q 831.53 937.26 831.49 996.59
  A 0.49 0.49 0.0 0 1 831.00 997.08
  L 784.52 997.10
  A 0.93 0.92 89.7 0 1 783.60 996.18
  Q 783.54 948.09 783.33 899.75
  C 783.25 882.35 781.26 860.82 759.16 858.78
  Q 758.13 858.69 758.13 859.72
  L 758.11 996.74
  A 0.35 0.34 0.0 0 1 757.76 997.08
  L 711.04 997.03
  A 0.89 0.89 0.0 0 1 710.15 996.14
  L 710.05 857.11
  L 710.06 820.54
  L 710.06 775.90
  L 710.07 732.05
  L 710.33 696.86
  Q 710.33 696.39 710.80 696.39
  Q 749.16 695.70 759.24 696.23
  C 775.96 697.11 788.94 703.03 801.98 712.72
  Z
  M 744.87 845.56
  C 753.02 845.32 762.62 844.84 769.88 847.22
  C 783.13 851.56 792.61 864.19 794.95 877.51
  Q 796.87 888.42 796.92 902.00
  Q 797.05 942.50 796.89 983.01
  A 0.65 0.64 0.4 0 0 797.54 983.66
  L 817.44 983.67
  A 0.53 0.53 0.0 0 0 817.97 983.14
  Q 818.05 932.07 817.95 881.00
  Q 817.91 861.52 809.21 846.10
  C 806.37 841.05 802.01 837.09 797.66 833.19
  Q 797.07 832.67 797.41 831.96
  C 801.55 823.44 806.88 814.15 809.92 806.33
  Q 815.01 793.23 816.18 780.50
  C 819.65 742.81 793.40 709.73 754.47 709.55
  Q 735.40 709.46 724.22 709.59
  Q 723.59 709.60 723.59 710.23
  L 723.66 983.28
  A 0.37 0.37 0.0 0 0 724.03 983.65
  L 744.04 983.71
  A 0.50 0.50 0.0 0 0 744.54 983.21
  L 744.56 845.89
  A 0.33 0.32 89.1 0 1 744.87 845.56
  Z"
/>
<path fill="#ffffff" d="
  M 1431.85 726.31
  L 1431.86 767.81
  L 1431.85 810.86
  L 1431.84 865.65
  L 1431.79 889.41
  Q 1431.80 909.63 1431.67 930.25
  C 1431.48 962.25 1416.24 991.18 1381.87 996.11
  Q 1364.83 998.55 1347.25 994.94
  Q 1330.62 991.52 1320.17 979.54
  C 1310.82 968.83 1307.59 954.62 1309.00 940.50
  Q 1309.05 940.02 1309.52 939.92
  L 1357.48 930.50
  A 0.41 0.41 0.0 0 1 1357.97 930.91
  C 1357.84 936.98 1356.57 947.26 1364.29 949.69
  C 1373.18 952.47 1382.46 948.12 1382.55 938.00
  Q 1382.77 914.35 1382.74 889.46
  L 1382.68 861.01
  L 1382.70 806.11
  L 1382.69 763.06
  L 1382.69 721.24
  L 1382.75 696.62
  Q 1382.75 696.09 1383.27 696.09
  L 1431.24 696.08
  Q 1431.79 696.08 1431.79 696.63
  L 1431.85 726.31
  Z
  M 1353.77 982.47
  C 1396.26 988.76 1418.28 969.21 1418.29 926.99
  Q 1418.33 818.57 1418.31 710.12
  Q 1418.31 709.52 1417.71 709.52
  L 1396.81 709.54
  Q 1396.24 709.54 1396.24 710.11
  Q 1396.25 824.36 1396.22 938.58
  Q 1396.22 943.08 1395.05 946.22
  C 1389.91 960.03 1376.20 966.61 1362.26 963.16
  Q 1350.39 960.22 1345.36 947.19
  Q 1345.15 946.64 1344.57 946.75
  L 1323.00 951.03
  Q 1322.40 951.15 1322.46 951.76
  C 1324.29 969.62 1336.65 979.94 1353.77 982.47
  Z"
/>
<path fill="#ffffff" d="
  M 211.47 719.08
  L 220.34 778.65
  L 227.06 824.02
  L 234.18 871.63
  L 237.77 895.94
  L 252.62 995.84
  A 0.62 0.61 -4.0 0 1 252.01 996.54
  L 204.69 996.54
  A 0.69 0.69 0.0 0 1 204.01 995.95
  L 199.35 965.99
  A 0.87 0.87 0.0 0 0 198.49 965.25
  L 165.49 965.26
  Q 164.98 965.26 164.91 965.76
  L 160.86 995.30
  Q 160.69 996.55 159.43 996.55
  L 112.24 996.55
  A 0.70 0.70 0.0 0 1 111.55 995.75
  L 126.39 895.93
  L 132.38 855.63
  L 139.18 809.69
  L 145.56 766.99
  L 154.05 709.74
  L 155.83 697.22
  A 0.71 0.71 0.0 0 1 156.53 696.61
  L 207.48 696.58
  A 0.75 0.75 0.0 0 1 208.23 697.22
  L 211.47 719.08
  Z
  M 157.58 925.40
  A 0.53 0.53 0.0 0 1 157.06 924.81
  L 180.84 710.62
  A 0.53 0.53 0.0 0 0 180.32 710.03
  L 168.09 710.08
  A 0.53 0.53 0.0 0 0 167.56 710.53
  L 127.12 982.54
  A 0.53 0.53 0.0 0 0 127.64 983.15
  L 148.49 983.14
  A 0.53 0.53 0.0 0 0 149.01 982.68
  L 153.17 952.21
  A 0.53 0.53 0.0 0 1 153.69 951.75
  L 210.33 951.75
  A 0.53 0.53 0.0 0 1 210.85 952.20
  L 215.57 982.69
  A 0.53 0.53 0.0 0 0 216.09 983.14
  L 236.49 983.14
  A 0.53 0.53 0.0 0 0 237.01 982.53
  L 196.57 710.51
  A 0.53 0.53 0.0 0 0 196.04 710.06
  L 183.27 710.06
  A 0.53 0.53 0.0 0 0 182.75 710.65
  L 206.53 924.79
  A 0.53 0.53 0.0 0 1 206.01 925.38
  L 157.58 925.40
  Z
  M 177.68 861.60
  L 173.87 896.01
  L 172.15 911.20
  A 0.59 0.58 -86.5 0 0 172.73 911.86
  L 190.74 911.86
  A 0.80 0.79 -3.5 0 0 191.53 910.97
  L 189.80 895.94
  L 186.16 862.82
  L 182.32 827.65
  Q 181.88 823.64 181.44 827.65
  L 177.68 861.60
  Z"
/>
<path fill="#ffffff" d="
  M 474.58 696.60
  C 496.75 696.43 514.85 703.65 527.67 721.89
  Q 535.80 737.43 534.03 755.82
  Q 533.98 756.34 533.47 756.44
  L 492.80 764.77
  L 487.08 765.76
  A 0.75 0.75 0.0 0 1 486.20 764.99
  L 486.37 761.59
  C 486.46 755.49 486.48 747.68 479.74 745.83
  Q 469.48 743.03 463.44 750.83
  Q 462.05 755.05 462.04 757.75
  Q 461.97 777.68 462.00 797.85
  L 462.11 851.86
  L 462.11 896.07
  Q 461.81 925.46 462.02 935.99
  C 462.35 952.26 486.00 954.50 486.19 938.50
  Q 486.45 917.23 486.28 895.97
  L 486.25 864.26
  Q 486.25 863.73 485.71 863.73
  L 467.81 863.88
  A 1.82 1.81 88.0 0 1 465.98 862.16
  L 465.53 853.87
  L 465.96 816.85
  Q 465.97 816.30 466.52 816.30
  L 498.21 816.30
  L 533.78 816.36
  A 0.50 0.50 0.0 0 1 534.28 816.86
  L 534.27 837.14
  L 534.33 888.88
  L 534.30 895.93
  Q 534.25 917.27 534.27 938.49
  Q 534.28 952.37 532.84 958.39
  Q 528.43 976.84 511.59 987.81
  C 492.36 1000.32 467.45 1000.01 448.03 988.82
  C 430.18 978.54 418.45 959.24 415.06 939.18
  Q 413.98 932.79 414.01 919.24
  Q 414.04 899.01 413.96 878.63
  L 413.98 832.29
  L 413.94 776.65
  Q 413.67 760.27 416.77 746.00
  Q 418.18 739.52 421.51 733.23
  C 433.26 712.67 450.72 699.06 474.58 696.60
  Z
  M 499.72 851.00
  Q 499.88 915.49 499.74 937.00
  C 499.54 969.05 457.26 971.77 449.48 942.95
  Q 448.52 939.36 448.52 936.50
  Q 448.48 847.87 448.53 759.26
  Q 448.53 742.48 460.97 735.29
  C 474.94 727.21 494.59 732.06 498.79 749.16
  A 0.61 0.60 77.1 0 0 499.50 749.61
  L 519.99 745.46
  Q 520.45 745.36 520.44 744.89
  C 520.04 726.02 504.68 714.10 487.40 711.05
  C 465.24 707.14 448.40 717.56 436.08 735.08
  Q 430.89 742.45 429.44 751.88
  C 428.43 758.42 427.50 764.65 427.49 771.42
  Q 427.46 845.83 427.50 920.24
  Q 427.50 933.79 428.94 940.13
  C 434.89 966.50 457.19 986.85 485.19 983.44
  C 501.19 981.49 516.30 971.12 519.83 954.94
  Q 520.75 950.71 520.75 935.00
  Q 520.75 882.62 520.75 830.26
  A 0.36 0.35 -0.0 0 0 520.39 829.91
  L 479.94 829.89
  Q 479.27 829.89 479.27 830.56
  L 479.26 849.54
  Q 479.26 850.32 480.04 850.32
  L 499.06 850.34
  Q 499.72 850.34 499.72 851.00
  Z"
/>
<path fill="#ffffff" d="
  M 1106.15 717.80
  L 1112.61 761.18
  L 1118.91 803.65
  L 1127.03 858.30
  L 1131.64 889.44
  L 1147.46 995.98
  Q 1147.54 996.54 1146.97 996.54
  L 1099.49 996.54
  Q 1098.92 996.54 1098.84 995.98
  L 1094.14 965.77
  A 0.62 0.62 0.0 0 0 1093.53 965.24
  L 1060.27 965.27
  A 0.55 0.54 4.3 0 0 1059.73 965.73
  L 1055.55 996.27
  A 0.31 0.30 3.1 0 1 1055.24 996.54
  L 1006.79 996.54
  A 0.49 0.49 0.0 0 1 1006.31 995.98
  L 1022.15 889.45
  L 1025.70 865.41
  L 1033.96 809.93
  L 1040.40 766.37
  L 1046.99 722.02
  L 1050.76 697.14
  A 0.64 0.64 0.0 0 1 1051.39 696.59
  L 1102.23 696.58
  A 0.91 0.91 0.0 0 1 1103.13 697.36
  L 1106.15 717.80
  Z
  M 1101.36 924.79
  A 0.53 0.53 0.0 0 1 1100.84 925.38
  L 1052.41 925.39
  A 0.53 0.53 0.0 0 1 1051.89 924.80
  L 1075.67 710.61
  A 0.53 0.53 0.0 0 0 1075.15 710.02
  L 1062.90 710.08
  A 0.53 0.53 0.0 0 0 1062.38 710.53
  L 1021.96 982.54
  A 0.53 0.53 0.0 0 0 1022.49 983.15
  L 1043.29 983.13
  A 0.53 0.53 0.0 0 0 1043.81 982.67
  L 1048.04 952.21
  A 0.53 0.53 0.0 0 1 1048.56 951.75
  L 1105.15 951.75
  A 0.53 0.53 0.0 0 1 1105.67 952.20
  L 1110.40 982.69
  A 0.53 0.53 0.0 0 0 1110.92 983.14
  L 1131.32 983.14
  A 0.53 0.53 0.0 0 0 1131.84 982.53
  L 1091.40 710.52
  A 0.53 0.53 0.0 0 0 1090.87 710.07
  L 1078.10 710.05
  A 0.53 0.53 0.0 0 0 1077.58 710.64
  L 1101.36 924.79
  Z
  M 1072.54 861.76
  L 1069.40 889.36
  L 1066.91 911.17
  Q 1066.84 911.85 1067.52 911.85
  L 1085.74 911.86
  Q 1086.46 911.86 1086.38 911.14
  L 1083.86 889.48
  L 1080.69 861.26
  L 1076.95 825.65
  A 0.16 0.16 0.0 0 0 1076.64 825.65
  L 1072.54 861.76
  Z"
/>
<path fill="#ffffff" d="
  M 1695.76 736.41
  L 1702.79 783.67
  L 1709.00 825.41
  L 1716.07 873.19
  L 1734.29 995.91
  A 0.55 0.54 -4.1 0 1 1733.75 996.53
  L 1686.54 996.55
  A 0.91 0.90 -4.4 0 1 1685.64 995.79
  L 1681.01 965.95
  A 0.82 0.82 0.0 0 0 1680.20 965.25
  L 1647.21 965.26
  A 0.62 0.61 3.7 0 0 1646.60 965.79
  L 1642.43 995.98
  A 0.67 0.67 0.0 0 1 1641.77 996.56
  L 1593.73 996.53
  Q 1593.11 996.53 1593.20 995.92
  L 1615.74 843.19
  L 1622.11 800.66
  L 1627.82 762.15
  L 1634.12 719.36
  L 1637.69 697.11
  Q 1637.77 696.62 1638.27 696.62
  L 1689.23 696.64
  A 0.62 0.61 -4.3 0 1 1689.84 697.16
  L 1695.76 736.41
  Z
  M 1688.19 924.77
  A 0.54 0.54 0.0 0 1 1687.66 925.37
  L 1639.26 925.39
  A 0.54 0.54 0.0 0 1 1638.73 924.79
  L 1662.51 710.62
  A 0.54 0.54 0.0 0 0 1661.97 710.02
  L 1649.76 710.08
  A 0.54 0.54 0.0 0 0 1649.23 710.54
  L 1608.79 982.53
  A 0.54 0.54 0.0 0 0 1609.33 983.15
  L 1630.11 983.13
  A 0.54 0.54 0.0 0 0 1630.64 982.66
  L 1634.88 952.22
  A 0.54 0.54 0.0 0 1 1635.41 951.75
  L 1691.99 951.75
  A 0.54 0.54 0.0 0 1 1692.52 952.21
  L 1697.22 982.66
  A 0.54 0.54 0.0 0 0 1697.75 983.12
  L 1718.14 983.14
  A 0.54 0.54 0.0 0 0 1718.68 982.52
  L 1678.24 710.51
  A 0.54 0.54 0.0 0 0 1677.70 710.05
  L 1664.94 710.05
  A 0.54 0.54 0.0 0 0 1664.41 710.65
  L 1688.19 924.77
  Z
  M 1660.11 855.14
  L 1653.83 911.31
  Q 1653.77 911.85 1654.31 911.85
  L 1672.54 911.86
  Q 1673.20 911.86 1673.13 911.20
  L 1667.14 857.46
  L 1663.80 825.86
  A 0.16 0.16 0.0 0 0 1663.49 825.86
  L 1660.11 855.14
  Z"
/>
<path fill="#0c4431" d="
  M 744.87 845.56
  A 0.33 0.32 89.1 0 0 744.56 845.89
  L 744.54 983.21
  A 0.50 0.50 0.0 0 1 744.04 983.71
  L 724.03 983.65
  A 0.37 0.37 0.0 0 1 723.66 983.28
  L 723.59 710.23
  Q 723.59 709.60 724.22 709.59
  Q 735.40 709.46 754.47 709.55
  C 793.40 709.73 819.65 742.81 816.18 780.50
  Q 815.01 793.23 809.92 806.33
  C 806.88 814.15 801.55 823.44 797.41 831.96
  Q 797.07 832.67 797.66 833.19
  C 802.01 837.09 806.37 841.05 809.21 846.10
  Q 817.91 861.52 817.95 881.00
  Q 818.05 932.07 817.97 983.14
  A 0.53 0.53 0.0 0 1 817.44 983.67
  L 797.54 983.66
  A 0.65 0.64 0.4 0 1 796.89 983.01
  Q 797.05 942.50 796.92 902.00
  Q 796.87 888.42 794.95 877.51
  C 792.61 864.19 783.13 851.56 769.88 847.22
  C 762.62 844.84 753.02 845.32 744.87 845.56
  Z
  M 795.38 761.28
  C 792.94 747.46 781.75 731.67 766.25 731.22
  Q 756.16 730.93 745.81 731.12
  A 0.61 0.61 0.0 0 0 745.21 731.73
  L 745.22 820.76
  A 0.42 0.42 0.0 0 0 745.63 821.18
  C 753.49 821.42 763.78 821.95 770.65 819.87
  C 793.16 813.03 798.82 780.74 795.38 761.28
  Z"
/>
<path fill="#0c4431" d="
  M 1418.29 926.99
  C 1418.28 969.21 1396.26 988.76 1353.77 982.47
  C 1336.65 979.94 1324.29 969.62 1322.46 951.76
  Q 1322.40 951.15 1323.00 951.03
  L 1344.57 946.75
  Q 1345.15 946.64 1345.36 947.19
  Q 1350.39 960.22 1362.26 963.16
  C 1376.20 966.61 1389.91 960.03 1395.05 946.22
  Q 1396.22 943.08 1396.22 938.58
  Q 1396.25 824.36 1396.24 710.11
  Q 1396.24 709.54 1396.81 709.54
  L 1417.71 709.52
  Q 1418.31 709.52 1418.31 710.12
  Q 1418.33 818.57 1418.29 926.99
  Z"
/>
<path fill="#0c4431" d="
  M 157.58 925.40
  L 206.01 925.38
  A 0.53 0.53 0.0 0 0 206.53 924.79
  L 182.75 710.65
  A 0.53 0.53 0.0 0 1 183.27 710.06
  L 196.04 710.06
  A 0.53 0.53 0.0 0 1 196.57 710.51
  L 237.01 982.53
  A 0.53 0.53 0.0 0 1 236.49 983.14
  L 216.09 983.14
  A 0.53 0.53 0.0 0 1 215.57 982.69
  L 210.85 952.20
  A 0.53 0.53 0.0 0 0 210.33 951.75
  L 153.69 951.75
  A 0.53 0.53 0.0 0 0 153.17 952.21
  L 149.01 982.68
  A 0.53 0.53 0.0 0 1 148.49 983.14
  L 127.64 983.15
  A 0.53 0.53 0.0 0 1 127.12 982.54
  L 167.56 710.53
  A 0.53 0.53 0.0 0 1 168.09 710.08
  L 180.32 710.03
  A 0.53 0.53 0.0 0 1 180.84 710.62
  L 157.06 924.81
  A 0.53 0.53 0.0 0 0 157.58 925.40
  Z"
/>
<path fill="#0c4431" d="
  M 1101.36 924.79
  L 1077.58 710.64
  A 0.53 0.53 0.0 0 1 1078.10 710.05
  L 1090.87 710.07
  A 0.53 0.53 0.0 0 1 1091.40 710.52
  L 1131.84 982.53
  A 0.53 0.53 0.0 0 1 1131.32 983.14
  L 1110.92 983.14
  A 0.53 0.53 0.0 0 1 1110.40 982.69
  L 1105.67 952.20
  A 0.53 0.53 0.0 0 0 1105.15 951.75
  L 1048.56 951.75
  A 0.53 0.53 0.0 0 0 1048.04 952.21
  L 1043.81 982.67
  A 0.53 0.53 0.0 0 1 1043.29 983.13
  L 1022.49 983.15
  A 0.53 0.53 0.0 0 1 1021.96 982.54
  L 1062.38 710.53
  A 0.53 0.53 0.0 0 1 1062.90 710.08
  L 1075.15 710.02
  A 0.53 0.53 0.0 0 1 1075.67 710.61
  L 1051.89 924.80
  A 0.53 0.53 0.0 0 0 1052.41 925.39
  L 1100.84 925.38
  A 0.53 0.53 0.0 0 0 1101.36 924.79
  Z"
/>
<path fill="#0c4431" d="
  M 1688.19 924.77
  L 1664.41 710.65
  A 0.54 0.54 0.0 0 1 1664.94 710.05
  L 1677.70 710.05
  A 0.54 0.54 0.0 0 1 1678.24 710.51
  L 1718.68 982.52
  A 0.54 0.54 0.0 0 1 1718.14 983.14
  L 1697.75 983.12
  A 0.54 0.54 0.0 0 1 1697.22 982.66
  L 1692.52 952.21
  A 0.54 0.54 0.0 0 0 1691.99 951.75
  L 1635.41 951.75
  A 0.54 0.54 0.0 0 0 1634.88 952.22
  L 1630.64 982.66
  A 0.54 0.54 0.0 0 1 1630.11 983.13
  L 1609.33 983.15
  A 0.54 0.54 0.0 0 1 1608.79 982.53
  L 1649.23 710.54
  A 0.54 0.54 0.0 0 1 1649.76 710.08
  L 1661.97 710.02
  A 0.54 0.54 0.0 0 1 1662.51 710.62
  L 1638.73 924.79
  A 0.54 0.54 0.0 0 0 1639.26 925.39
  L 1687.66 925.37
  A 0.54 0.54 0.0 0 0 1688.19 924.77
  Z"
/>
<path fill="#0c4431" d="
  M 499.06 850.34
  L 480.04 850.32
  Q 479.26 850.32 479.26 849.54
  L 479.27 830.56
  Q 479.27 829.89 479.94 829.89
  L 520.39 829.91
  A 0.36 0.35 -0.0 0 1 520.75 830.26
  Q 520.75 882.62 520.75 935.00
  Q 520.75 950.71 519.83 954.94
  C 516.30 971.12 501.19 981.49 485.19 983.44
  C 457.19 986.85 434.89 966.50 428.94 940.13
  Q 427.50 933.79 427.50 920.24
  Q 427.46 845.83 427.49 771.42
  C 427.50 764.65 428.43 758.42 429.44 751.88
  Q 430.89 742.45 436.08 735.08
  C 448.40 717.56 465.24 707.14 487.40 711.05
  C 504.68 714.10 520.04 726.02 520.44 744.89
  Q 520.45 745.36 519.99 745.46
  L 499.50 749.61
  A 0.61 0.60 77.1 0 1 498.79 749.16
  C 494.59 732.06 474.94 727.21 460.97 735.29
  Q 448.53 742.48 448.53 759.26
  Q 448.48 847.87 448.52 936.50
  Q 448.52 939.36 449.48 942.95
  C 457.26 971.77 499.54 969.05 499.74 937.00
  Q 499.88 915.49 499.72 851.00
  Q 499.72 850.34 499.06 850.34
  Z"
/>
<path fill="#ffffff" d="
  M 766.25 731.22
  C 781.75 731.67 792.94 747.46 795.38 761.28
  C 798.82 780.74 793.16 813.03 770.65 819.87
  C 763.78 821.95 753.49 821.42 745.63 821.18
  A 0.42 0.42 0.0 0 1 745.22 820.76
  L 745.21 731.73
  A 0.61 0.61 0.0 0 1 745.81 731.12
  Q 756.16 730.93 766.25 731.22
  Z
  M 758.74 765.04
  L 758.67 806.89
  Q 758.67 807.43 759.20 807.47
  C 769.44 808.21 775.07 802.83 778.90 793.56
  Q 785.44 777.78 781.45 760.36
  Q 778.81 752.27 773.29 747.88
  Q 767.65 743.40 759.15 744.93
  Q 758.74 745.00 758.74 745.42
  L 758.74 765.04
  Z"
/>
<path fill="#0c4431" d="
  M 710.07 732.05
  L 710.06 775.90
  Q 671.16 785.08 633.02 795.62
  A 2.23 2.22 54.2 0 1 631.21 795.32
  Q 607.94 779.69 583.44 766.05
  A 0.44 0.44 0.0 0 1 583.53 765.25
  Q 646.18 746.74 710.07 732.05
  Z"
/>
<path fill="#0c4431" d="
  M 1695.76 736.41
  L 1722.71 744.99
  A 0.81 0.80 9.0 0 1 1723.27 745.75
  L 1723.26 789.61
  Q 1723.26 790.58 1722.34 790.27
  L 1702.79 783.67
  L 1695.76 736.41
  Z"
/>
<path fill="#0c4431" d="
  M 781.45 760.36
  L 758.74 765.04
  L 758.74 745.42
  Q 758.74 745.00 759.15 744.93
  Q 767.65 743.40 773.29 747.88
  Q 778.81 752.27 781.45 760.36
  Z"
/>
<path fill="#ffb533" d="
  M 463.44 750.83
  L 486.37 761.59
  L 486.20 764.99
  A 0.75 0.75 0.0 0 0 487.08 765.76
  L 492.80 764.77
  C 560.92 798.49 623.65 841.42 677.50 895.17
  A 0.44 0.44 0.0 0 1 677.19 895.92
  Q 646.50 895.88 616.75 895.90
  Q 614.80 895.91 613.77 895.01
  Q 576.42 862.92 534.27 837.14
  L 534.28 816.86
  A 0.50 0.50 0.0 0 0 533.78 816.36
  L 498.21 816.30
  L 462.00 797.85
  Q 461.97 777.68 462.04 757.75
  Q 462.05 755.05 463.44 750.83
  Z"
/>
<path fill="#0c4431" d="
  M 1382.69 763.06
  L 1382.70 806.11
  C 1294.81 799.55 1207.01 798.68 1118.91 803.65
  L 1112.61 761.18
  Q 1247.78 753.26 1382.69 763.06
  Z"
/>
<path fill="#ffb533" d="
  M 145.56 766.99
  L 139.18 809.69
  L 88.47 804.27
  Q 87.98 804.22 87.98 803.72
  L 87.98 761.49
  Q 87.98 760.86 88.60 760.92
  L 145.56 766.99
  Z"
/>
<path fill="#0c4431" d="
  M 1040.40 766.37
  L 1033.96 809.93
  Q 927.11 819.82 821.32 839.82
  L 814.35 830.50
  A 2.04 2.04 0.0 0 1 814.21 828.27
  C 817.93 821.66 821.19 815.31 823.61 807.95
  Q 825.74 801.47 827.64 795.03
  Q 933.30 775.85 1040.40 766.37
  Z"
/>
<path fill="#0c4431" d="
  M 1431.86 767.81
  Q 1528.21 777.80 1622.11 800.66
  L 1615.74 843.19
  Q 1524.91 820.87 1431.85 810.86
  L 1431.86 767.81
  Z"
/>
<path fill="#ffb533" d="
  M 220.34 778.65
  C 286.59 791.34 350.81 808.56 413.98 832.29
  L 413.96 878.63
  Q 323.03 842.61 227.06 824.02
  L 220.34 778.65
  Z"
/>
<path fill="#0c4431" d="
  M 710.06 820.54
  L 710.05 857.11
  Q 694.68 842.72 678.39 829.90
  A 0.51 0.51 0.0 0 1 678.57 829.01
  L 710.06 820.54
  Z"
/>
<path fill="#0c4431" d="
  M 1709.00 825.41
  L 1722.69 830.20
  A 0.88 0.86 -80.7 0 1 1723.27 831.03
  L 1723.25 875.30
  A 0.55 0.55 0.0 0 1 1722.49 875.81
  L 1716.07 873.19
  L 1709.00 825.41
  Z"
/>
<path fill="#0c4431" d="
  M 1667.14 857.46
  L 1660.11 855.14
  L 1663.49 825.86
  A 0.16 0.16 0.0 0 1 1663.80 825.86
  L 1667.14 857.46
  Z"
/>
<path fill="#ffb533" d="
  M 132.38 855.63
  L 126.39 895.93
  L 88.58 895.86
  Q 87.98 895.86 87.98 895.26
  L 87.98 851.74
  Q 87.98 851.13 88.59 851.19
  L 132.38 855.63
  Z"
/>
<path fill="#ffb533" d="
  M 462.11 851.86
  Q 463.94 854.14 465.53 853.87
  L 465.98 862.16
  A 1.82 1.81 88.0 0 0 467.81 863.88
  L 485.71 863.73
  Q 486.25 863.73 486.25 864.26
  L 486.28 895.97
  L 462.11 896.07
  L 462.11 851.86
  Z"
/>
<path fill="#0c4431" d="
  M 1382.68 861.01
  L 1382.74 889.46
  L 1131.64 889.44
  L 1127.03 858.30
  Q 1254.86 851.54 1382.68 861.01
  Z"
/>
<path fill="#0c4431" d="
  M 1080.69 861.26
  L 1083.86 889.48
  L 1069.40 889.36
  L 1072.54 861.76
  L 1080.69 861.26
  Z"
/>
<path fill="#ffb533" d="
  M 177.68 861.60
  L 186.16 862.82
  L 189.80 895.94
  L 173.87 896.01
  L 177.68 861.60
  Z"
/>
<path fill="#0c4431" d="
  M 1025.70 865.41
  L 1022.15 889.45
  Q 945.90 889.43 870.00 889.41
  Q 859.83 889.41 849.33 888.88
  Q 849.02 888.86 849.20 888.61
  Q 849.35 888.38 850.00 888.31
  C 854.20 887.86 858.50 887.49 862.66 886.80
  Q 944.12 873.39 1020.01 866.13
  Q 1024.43 865.71 1025.70 865.41
  Z"
/>
<path fill="#0c4431" d="
  M 1431.79 889.41
  L 1431.84 865.65
  Q 1491.13 871.98 1532.50 879.74
  Q 1556.80 884.29 1581.08 888.76
  A 0.09 0.08 49.1 0 1 1581.07 888.93
  L 1431.79 889.41
  Z"
/>
<path fill="#ffb533" d="
  M 234.18 871.63
  Q 284.30 881.57 333.04 895.56
  A 0.21 0.20 -36.8 0 1 332.98 895.96
  L 237.77 895.94
  L 234.18 871.63
  Z"
/>
<path fill="#ffb533" d="
  M 534.33 888.88
  L 545.53 895.36
  Q 546.35 895.84 545.40 895.84
  L 534.30 895.93
  L 534.33 888.88
  Z"
/>
<rect fill="#0c4431" x="105.75" y="1023.48" width="1643.02" height="51.42" rx="0.83"/>
</svg>
